<svg id="Layer_1" data-name="Layer 1" xmlns="http://www.w3.org/2000/svg" viewBox="0 0 100 100"><defs><style>.cls-1{fill:#abacee;}.cls-2{fill:#5658dd;}.cls-3{fill:#e6f0fd;}</style></defs><title>Artboard 10</title><rect class="cls-1" x="18.46" y="18.46" width="63.08" height="63.08" rx="31.54" ry="31.54"/><rect class="cls-2" x="40.33" y="44.16" width="26.74" height="21.26" rx="1.64" ry="1.64"/><rect class="cls-3" x="32.94" y="40.69" width="26.74" height="21.26" rx="1.64" ry="1.64"/><path class="cls-2" d="M54.31,49.62h-9a.39.39,0,0,1,0-.77h9a.39.39,0,1,1,0,.77Z"/><path class="cls-2" d="M43.08,49.62H38.4a.39.39,0,0,1,0-.77h4.68a.39.39,0,1,1,0,.77Z"/><path class="cls-2" d="M43.08,56.07H38.4a.39.39,0,0,1,0-.77h4.68a.39.39,0,1,1,0,.77Z"/><path class="cls-2" d="M54.31,56.07H46.8a.39.39,0,0,1,0-.77h7.51a.39.39,0,1,1,0,.77Z"/><path class="cls-2" d="M54.31,52.85H48.56a.39.39,0,0,1,0-.77h5.76a.39.39,0,1,1,0,.77Z"/><path class="cls-2" d="M46.36,52.85h-8a.39.39,0,1,1,0-.77h8a.39.39,0,1,1,0,.77Z"/><path class="cls-2" d="M45.56,44.57a.33.33,0,0,1-.18-.06.34.34,0,0,1-.1-.46l4-6a.34.34,0,0,1,.56.37l-4,6A.34.34,0,0,1,45.56,44.57Z"/><circle class="cls-3" cx="50.64" cy="36.55" r="1.96" transform="translate(-7.76 58.67) rotate(-56.56)"/></svg>