<svg id="Layer_1" data-name="Layer 1" xmlns="http://www.w3.org/2000/svg" viewBox="0 0 100 100"><defs><style>.cls-1{fill:#abacee;}.cls-2{fill:#5658dd;}.cls-3{fill:#e6f0fd;}</style></defs><title>Artboard 4</title><rect class="cls-1" x="18.46" y="18.46" width="63.08" height="63.08" rx="31.54" ry="31.54"/><rect class="cls-2" x="33.83" y="35.21" width="32.34" height="29.57" rx="2" ry="2"/><rect class="cls-3" x="37.93" y="41.15" width="14.3" height="17.7" rx="2" ry="2"/><path class="cls-1" d="M45.3,56.52,42.46,53A.35.35,0,0,0,42,53l-3.55,5.17a2,2,0,0,0,1.51.71h7.22L45.3,56.52Z"/><path class="cls-1" d="M47.42,53.45,45.3,56.52l1.86,2.32h3.08a2,2,0,0,0,1.47-.66l-3.79-4.74A.35.35,0,0,0,47.42,53.45Z"/><polygon class="cls-1" points="45.3 56.52 47.16 58.85 45.3 56.52 45.3 56.52"/><path class="cls-3" d="M61.56,48.51H55.22a.51.51,0,1,1,0-1h6.34a.51.51,0,0,1,0,1Z"/><path class="cls-3" d="M61.56,44.21H55.22a.51.51,0,0,1,0-1h6.34a.51.51,0,0,1,0,1Z"/><path class="cls-3" d="M61.56,56.8H55.22a.51.51,0,1,1,0-1h6.34a.51.51,0,0,1,0,1Z"/><path class="cls-3" d="M61.56,52.51H55.22a.51.51,0,0,1,0-1h6.34a.51.51,0,0,1,0,1Z"/><circle class="cls-1" cx="49.09" cy="48.87" r="1.07"/></svg>
