<svg id="Layer_1" data-name="Layer 1" xmlns="http://www.w3.org/2000/svg" viewBox="0 0 100 100"><defs><style>.cls-1{fill:#abacee;}.cls-2{fill:#5658dd;}.cls-3{fill:#e6f0fd;}</style></defs><title>Artboard 7</title><rect class="cls-1" x="18.46" y="18.46" width="63.08" height="63.08" rx="31.54" ry="31.54"/><rect class="cls-2" x="31.92" y="37.3" width="30.6" height="6.57" rx="0.94" ry="0.94"/><rect class="cls-2" x="31.92" y="46.57" width="30.6" height="6.57" rx="0.94" ry="0.94"/><rect class="cls-2" x="31.92" y="55.84" width="30.6" height="6.57" rx="0.94" ry="0.94"/><rect class="cls-3" x="34.36" y="43.87" width="25.73" height="2.7"/><rect class="cls-3" x="34.36" y="53.14" width="25.73" height="2.7"/><rect class="cls-3" x="34.36" y="39.92" width="1.33" height="1.33" rx="0.66" ry="0.66"/><rect class="cls-3" x="37.04" y="39.92" width="1.33" height="1.33" rx="0.66" ry="0.66"/><rect class="cls-3" x="42.61" y="39.92" width="17.48" height="1.33" rx="0.66" ry="0.66"/><rect class="cls-1" x="34.36" y="49.19" width="1.33" height="1.33" rx="0.66" ry="0.66"/><rect class="cls-1" x="37.04" y="49.19" width="1.33" height="1.33" rx="0.66" ry="0.66"/><rect class="cls-3" x="42.61" y="49.19" width="17.48" height="1.33" rx="0.66" ry="0.66"/><rect class="cls-3" x="34.36" y="58.46" width="1.33" height="1.33" rx="0.66" ry="0.66"/><rect class="cls-3" x="37.04" y="58.46" width="1.33" height="1.33" rx="0.66" ry="0.66"/><rect class="cls-3" x="42.61" y="58.46" width="17.48" height="1.33" rx="0.66" ry="0.66"/><circle class="cls-3" cx="61.97" cy="60.6" r="6.11"/><path class="cls-2" d="M60.5,63.84a.47.47,0,0,1-.33-.14l-2.62-2.62a.47.47,0,0,1,.66-.66l2.29,2.29,5.23-5.23a.47.47,0,0,1,.66.66l-5.56,5.56A.47.47,0,0,1,60.5,63.84Z"/></svg>